<svg height="482pt" viewBox="0 -45 482 482" width="482pt" xmlns="http://www.w3.org/2000/svg"><path d="m155.429688 75.699219v-35.699219c0-16.570312 13.433593-30 30-30h256.570312c16.570312 0 30 13.429688 30 30v175.019531c0 16.570313-13.429688 30-30 30h-19.730469v78.03125l-95.609375-78.03125h-141.230468c-16.566407 0-30-13.429687-30-30zm0 0" fill="#00efd1"/><path d="m298.78125 245.019531v41.679688c0 16.570312-13.433594 30-30 30h-106.0625l-100.910156 65.101562v-65.101562h-21.808594c-16.570312 0-30-13.429688-30-30v-181c0-16.566407 13.429688-30 30-30h115.429688v139.320312c0 16.570313 13.433593 30 30 30zm0 0" fill="#00acea"/><path d="m442 0h-256.570312c-22.082032.0234375-39.976563 17.917969-40 40v25.699219h-105.429688c-22.082031.027343-39.9765625 17.917969-40 40v181c.0234375 22.082031 17.917969 39.976562 40 40h11.808594v55.101562c.003906 3.660157 2.003906 7.027344 5.21875 8.777344s7.125 1.605469 10.203125-.378906l98.433593-63.5h103.117188c22.078125-.023438 39.972656-17.917969 40-40v-31.679688h14.320312l92.847657 75.777344c2.992187 2.441406 7.125 2.941406 10.613281 1.285156s5.710938-5.171875 5.710938-9.03125v-68.03125h9.726562c22.082031-.023437 39.976562-17.917969 40-40v-175.019531c-.023438-22.082031-17.917969-39.9765625-40-40zm-153.21875 286.699219c-.015625 11.042969-8.960938 19.988281-20 20h-106.0625c-1.921875 0-3.804688.558593-5.417969 1.601562l-85.492187 55.148438v-46.75c0-5.523438-4.476563-10-10-10h-21.808594c-11.039062-.011719-19.988281-8.957031-20-20v-181c.011719-11.039063 8.960938-19.988281 20-20h105.429688v129.320312c.023437 22.082031 17.917968 39.976563 40 40h103.351562zm173.21875-71.679688c-.011719 11.039063-8.960938 19.988281-20 20h-19.730469c-5.523437 0-10 4.476563-10 10v56.960938l-79.285156-64.707031c-1.785156-1.457032-4.019531-2.253907-6.324219-2.253907h-141.230468c-11.039063-.011719-19.988282-8.957031-20-20v-175.019531c.011718-11.039062 8.960937-19.988281 20-20h256.570312c11.039062.011719 19.988281 8.960938 20 20zm0 0" fill="#083863"/></svg>