<?xml version="1.0" encoding="iso-8859-1"?>
<!-- Generator: Adobe Illustrator 19.0.0, SVG Export Plug-In . SVG Version: 6.00 Build 0)  -->
<svg version="1.1" id="Capa_1" xmlns="http://www.w3.org/2000/svg" xmlns:xlink="http://www.w3.org/1999/xlink" x="0px" y="0px"
	 viewBox="0 0 413.265 413.265" style="enable-background:new 0 0 413.265 413.265;" xml:space="preserve">
<path style="fill:#00EFD1;" d="M277.092,98.362l51.82,41.36l74.24,59.27l-39.23,43.19l-24.02-19.25l-133.34-106.81l-131.83,105.61
	l-25.53,20.45l-39.23-43.19l196.59-156.93L277.092,98.362z"/>
<path style="fill:#00ACEA;" d="M339.902,222.932l-1.54,1.92v163.54h-263.6v-166.62l-0.03-0.04l131.83-105.61L339.902,222.932z"/>
<path style="fill:#00CEB4;" d="M329.102,24.872v114.61l-0.19,0.24l-51.82-41.36v-73.49L329.102,24.872z"/>
<path style="fill:#083863;" d="M409.621,191.177l-70.059-56.116V24.872c-0.197-5.657-4.8-10.163-10.46-10.24h-52.01
	c-5.522,0-9.53,4.717-9.53,10.24v52.711l-54.527-43.336c-3.693-2.913-8.901-2.913-12.594,0L3.793,191.176
	c-4.327,3.423-5.06,9.706-1.637,14.033c0.137,0.173,0.28,0.342,0.428,0.506l39.223,43.19c1.893,2.089,4.581,3.28,7.4,3.277
	c2.241-0.001,4.413-0.778,6.146-2.2l9.209-7.45v145.86c0.075,5.609,4.592,10.143,10.2,10.24h263.6
	c5.608-0.097,10.125-4.631,10.2-10.24v-145.86l9.207,7.458c4.105,3.303,10.074,2.829,13.606-1.08l39.2-43.19
	c1.887-2.033,2.852-4.754,2.668-7.521C413.064,195.457,411.752,192.913,409.621,191.177L409.621,191.177z M287.562,34.632h32v84.465
	l-32-25.551V34.632z M84.562,378.632V226.508l122-97.576l122,97.566v152.134L84.562,378.632z M362.84,228.5L212.814,108.318
	c-3.653-2.925-8.847-2.925-12.5,0L50.285,228.502l-25.744-28.344l182.021-145.3l116.111,92.68l65.911,52.62L362.84,228.5z"/>
<g>
</g>
<g>
</g>
<g>
</g>
<g>
</g>
<g>
</g>
<g>
</g>
<g>
</g>
<g>
</g>
<g>
</g>
<g>
</g>
<g>
</g>
<g>
</g>
<g>
</g>
<g>
</g>
<g>
</g>
</svg>
