<svg height="457pt" viewBox="0 -28 457.36 457" width="457pt" xmlns="http://www.w3.org/2000/svg"><path d="m194.601562 134.011719.570313-.570313 56.796875 56.796875-64.1875 64.75-5.203125 5.203125-56.796875-57.371094 52.917969-52.910156zm0 0" fill="#00acea"/><path d="m194.601562 134.011719-15.902343 15.898437-52.917969 52.910156 56.796875 57.371094 5.203125-5.203125 64.1875-64.75-56.796875-56.796875zm0-55.671875h212.757813c22.09375 0 40 17.910156 40 40v232.398437c0 22.09375-17.90625 40-40 40h-357.359375c-22.089844 0-40-17.90625-40-40v-232.398437c0-22.089844 17.910156-40 40-40zm0 0" fill="#00efd1"/><path d="m407.359375 68.339844h-74.839844v-28.160156c-.023437-22.082032-17.917969-39.976563-40-40h-127.679687c-22.082032.023437-39.976563 17.917968-40 40v28.160156h-74.839844c-27.601562.03125-49.96875 22.398437-50 50v232.398437c.03125 27.601563 22.398438 49.96875 50 50h357.359375c27.601563-.03125 49.96875-22.398437 50-50v-232.398437c-.03125-27.601563-22.398437-49.96875-50-50zm-262.519531-28.160156c.011718-11.039063 8.960937-19.988282 20-20h127.679687c11.039063.011718 19.988281 8.960937 20 20v28.160156h-167.679687zm50.332031 107.398437 42.6875 42.691406-55.253906 55.730469-42.71875-43.140625zm242.1875 203.160156c-.019531 16.5625-13.4375 29.984375-30 30h-357.359375c-16.5625-.015625-29.980469-13.4375-30-30v-232.398437c.019531-16.5625 13.4375-29.980469 30-30h134.601562v41.527344l-65.890624 65.878906c-3.894532 3.894531-3.910157 10.199218-.035157 14.109375l56.796875 57.371093c1.875 1.890626 4.421875 2.957032 7.082032 2.960938h.027343c2.652344 0 5.195313-1.050781 7.070313-2.925781l5.230468-5.234375 64.1875-64.75c3.878907-3.910156 3.863282-10.214844-.027343-14.109375l-54.441407-54.441407v-40.386718h202.757813c16.5625.019531 29.984375 13.4375 30 30zm0 0" fill="#083863"/></svg>